<?xml version="1.0" encoding="UTF-8"?>
<svg width="52px" height="45px" viewBox="0 0 52 45" version="1.1" xmlns="http://www.w3.org/2000/svg" xmlns:xlink="http://www.w3.org/1999/xlink">
    <!-- Generator: Sketch 51.3 (57544) - http://www.bohemiancoding.com/sketch -->
    <title>Group</title>
    <desc>Created with Sketch.</desc>
    <defs></defs>
    <g id="Symbols" stroke="none" stroke-width="1" fill="none" fill-rule="evenodd">
        <g id="cup" fill="#FFDF0F" fill-rule="nonzero">
            <g id="Group">
                <path d="M15.6128158,26.6170712 C10.0600604,28.3706832 4.00811301,26.1665833 1.31804207,21.0771679 C-1.61775378,15.5228592 0.517650362,8.55089688 6.06659782,5.12625084 C5.90988056,4.53771246 5.75400207,3.93719148 5.59896237,3.32468791 C5.54452671,3.1096331 5.51698955,2.88858379 5.51698955,2.66666667 C5.51698955,1.19390733 6.70382933,6.46226302e-10 8.16787039,6.46226302e-10 L26,0 L26,40 C21.6742972,34.7752724 18.2119025,30.3142961 15.6128158,26.6170712 Z M14.3107607,24.7210325 C13.1197891,22.9412592 12.161773,21.367584 11.4367126,20 C9.76143484,16.8401489 8.16317331,12.5800652 6.64192797,7.21974881 C3.6625709,10.6304767 2.81806442,15.3948814 4.89115101,19.317008 C6.72721969,22.7907142 10.3875461,24.7252501 14.3107607,24.7210325 Z" id="Combined-Shape"></path>
                <path d="M36.3871842,26.6170712 C33.7880975,30.3142961 30.3257028,34.7752724 26,40 L26,0 L43.8321296,6.46226302e-10 C45.2961707,6.46226302e-10 46.4830104,1.19390733 46.4830104,2.66666667 C46.4830104,2.88858379 46.4554733,3.1096331 46.4010376,3.32468791 C46.2459979,3.93719148 46.0901194,4.53771246 45.9334022,5.12625084 C51.4823496,8.55089688 53.6177538,15.5228592 50.6819579,21.0771679 C47.991887,26.1665833 41.9399396,28.3706832 36.3871842,26.6170712 Z M37.6892393,24.7210393 C41.6124539,24.7252501 45.2727803,22.7907142 47.108849,19.317008 C49.1819356,15.3948814 48.3374291,10.6304767 45.358072,7.21974881 C43.8368267,12.5800652 42.2385652,16.8401489 40.5632874,20 C39.838227,21.367584 38.8802109,22.9412592 37.6892393,24.7210393 Z" id="Combined-Shape"></path>
                <path d="M26,34 L26,45 L17.2751202,45 C17.1231755,45 17,44.8768734 17,44.7249891 C17,44.6338689 17.0451515,44.5486648 17.1205642,44.4974756 C19.6703662,42.7667034 21.4339062,41.3430946 22.4111842,40.2266491 C23.4814724,39.0039486 24.6777443,36.9283989 26,34 Z" id="Triangle"></path>
                <path d="M26,34 C27.3222557,36.9283989 28.5185276,39.0039486 29.5888158,40.2266491 C30.5660938,41.3430946 32.3296338,42.7667034 34.8794358,44.4974756 C34.9548485,44.5486648 35,44.6338689 35,44.7249891 C35,44.8768734 34.8768245,45 34.7248798,45 L26,45 L26,34 Z" id="Triangle"></path>
            </g>
        </g>
    </g>
</svg>